<?xml version="1.0" encoding="UTF-8" standalone="no"?>
<!-- Created with Inkscape (http://www.inkscape.org/) -->

<svg
   width="197.2589mm"
   height="183.38554mm"
   viewBox="0 0 197.2589 183.38554"
   version="1.1"
   id="svg5"
   inkscape:version="1.1.1 (3bf5ae0d25, 2021-09-20)"
   sodipodi:docname="ic_custom_launcher_icon.svg"
   xmlns:inkscape="http://www.inkscape.org/namespaces/inkscape"
   xmlns:sodipodi="http://sodipodi.sourceforge.net/DTD/sodipodi-0.dtd"
   xmlns="http://www.w3.org/2000/svg"
   xmlns:svg="http://www.w3.org/2000/svg">
  <sodipodi:namedview
     id="namedview7"
     pagecolor="#ffffff"
     bordercolor="#666666"
     borderopacity="1.0"
     inkscape:pageshadow="2"
     inkscape:pageopacity="0.0"
     inkscape:pagecheckerboard="0"
     inkscape:document-units="mm"
     showgrid="false"
     inkscape:zoom="0.72337262"
     inkscape:cx="18.662581"
     inkscape:cy="418.18005"
     inkscape:window-width="1920"
     inkscape:window-height="1001"
     inkscape:window-x="-9"
     inkscape:window-y="-9"
     inkscape:window-maximized="1"
     inkscape:current-layer="layer1"
     showguides="false"
     inkscape:guide-bbox="true"
     width="120mm"
     fit-margin-top="50"
     fit-margin-left="50"
     fit-margin-right="50"
     fit-margin-bottom="50">
    <sodipodi:guide
       position="24.762317,81.447122"
       orientation="1,0"
       id="guide1159" />
    <sodipodi:guide
       position="45.610839,152.03948"
       orientation="0,-1"
       id="guide1182" />
  </sodipodi:namedview>
  <defs
     id="defs2">
    <linearGradient
       id="linearGradient6558"
       inkscape:swatch="solid">
      <stop
         style="stop-color:#ffff00;stop-opacity:1;"
         offset="0"
         id="stop6556" />
    </linearGradient>
    <linearGradient
       id="linearGradient3926"
       inkscape:swatch="solid">
      <stop
         style="stop-color:#0000ff;stop-opacity:1;"
         offset="0"
         id="stop3924" />
    </linearGradient>
    <linearGradient
       id="linearGradient852"
       inkscape:swatch="gradient">
      <stop
         style="stop-color:#ffffff;stop-opacity:1;"
         offset="0"
         id="stop848" />
      <stop
         style="stop-color:#0000ff;stop-opacity:0;"
         offset="1"
         id="stop850" />
    </linearGradient>
  </defs>
  <g
     inkscape:label="Layer 1"
     inkscape:groupmode="layer"
     id="layer1"
     transform="translate(-20.226603,-30.833742)">
    <rect
       style="fill:#0000ff;fill-opacity:1;stroke-width:0.292389"
       id="rect3244"
       width="66.934731"
       height="12.070197"
       x="96.195808"
       y="84.857132" />
    <path
       style="fill:#ff0000;fill-opacity:1"
       id="path3290"
       sodipodi:type="arc"
       sodipodi:cx="80.650864"
       sodipodi:cy="92.355293"
       sodipodi:rx="10.424261"
       sodipodi:ry="11.521551"
       sodipodi:start="0"
       sodipodi:end="6.1109294"
       sodipodi:arc-type="arc"
       d="M 91.075125,92.355293 A 10.424261,11.521551 0 0 1 81.099635,103.86616 10.424261,11.521551 0 0 1 70.265242,93.346394 10.424261,11.521551 0 0 1 79.307876,80.929759 10.424261,11.521551 0 0 1 90.920852,90.380438"
       sodipodi:open="true" />
    <path
       style="fill:#000000;stroke:#000000;stroke-width:0.264583px;stroke-linecap:butt;stroke-linejoin:miter;stroke-opacity:1"
       d="m 72.421183,128.38301 c 32.918717,0 32.552957,-0.36577 32.552957,-0.36577 v 9.14409 l -32.918722,-0.36577 z"
       id="path5826" />
    <path
       style="fill:#000000;fill-opacity:1;stroke:#000000;stroke-width:0.264583px;stroke-linecap:butt;stroke-linejoin:miter;stroke-opacity:1"
       d="m 104.97413,128.01724 10.97291,-15.72783 -0.73153,38.03941 -10.24138,-13.16749"
       id="path5828" />
    <path
       style="fill:#ffff00;fill-opacity:1"
       id="path5958"
       sodipodi:type="arc"
       sodipodi:cx="72.253227"
       sodipodi:cy="159.26576"
       sodipodi:rx="22.6432"
       sodipodi:ry="1.2155"
       sodipodi:start="0"
       sodipodi:end="5.2561227"
       sodipodi:open="true"
       sodipodi:arc-type="arc"
       d="m 94.896427,159.26576 a 22.6432,1.2155 0 0 1 -16.892878,1.17565 22.6432,1.2155 0 0 1 -25.472892,-0.57853 22.6432,1.2155 0 0 1 3.955014,-1.46949 22.6432,1.2155 0 0 1 27.481673,-0.16783"
       transform="rotate(-30.210669)"
       inkscape:transform-center-x="0.36576356"
       inkscape:transform-center-y="-0.73152712" />
    <path
       style="fill:#ffff00;fill-opacity:1"
       id="path5958-4"
       sodipodi:type="arc"
       sodipodi:cx="108.99882"
       sodipodi:cy="149.31177"
       sodipodi:rx="22.6432"
       sodipodi:ry="1.265522"
       sodipodi:start="0"
       sodipodi:end="5.2561227"
       sodipodi:open="true"
       sodipodi:arc-type="arc"
       d="m 131.64202,149.31177 a 22.6432,1.265522 0 0 1 -16.89288,1.22403 22.6432,1.265522 0 0 1 -25.472893,-0.60234 22.6432,1.265522 0 0 1 3.955015,-1.52996 22.6432,1.265522 0 0 1 27.481668,-0.17474"
       transform="rotate(-14.745822)"
       inkscape:transform-center-x="-1.8288177"
       inkscape:transform-center-y="0.36576355" />
    <path
       style="fill:#ffff00;fill-opacity:1"
       id="path5958-8"
       sodipodi:type="arc"
       sodipodi:cx="144.4724"
       sodipodi:cy="130.62221"
       sodipodi:rx="22.6432"
       sodipodi:ry="1.265522"
       sodipodi:start="0"
       sodipodi:end="5.2561227"
       sodipodi:open="true"
       sodipodi:arc-type="arc"
       d="m 167.1156,130.62221 a 22.6432,1.265522 0 0 1 -16.89288,1.22403 22.6432,1.265522 0 0 1 -25.47289,-0.60234 22.6432,1.265522 0 0 1 3.95501,-1.52996 22.6432,1.265522 0 0 1 27.48167,-0.17474"
       transform="rotate(-0.16254996)" />
    <path
       style="fill:#ffff00;fill-opacity:1"
       id="path5958-6"
       sodipodi:type="arc"
       sodipodi:cx="166.23517"
       sodipodi:cy="116.5591"
       sodipodi:rx="22.6432"
       sodipodi:ry="1.265522"
       sodipodi:start="0"
       sodipodi:end="5.2561227"
       sodipodi:open="true"
       sodipodi:arc-type="arc"
       d="m 188.87837,116.5591 a 22.6432,1.265522 0 0 1 -16.89288,1.22403 22.6432,1.265522 0 0 1 -25.47289,-0.60234 22.6432,1.265522 0 0 1 3.95501,-1.52996 22.6432,1.265522 0 0 1 27.48167,-0.17475"
       transform="rotate(9.8899765)" />
    <path
       style="fill:#ffff00;fill-opacity:1"
       id="path5958-2"
       sodipodi:type="arc"
       sodipodi:cx="181.55884"
       sodipodi:cy="87.706543"
       sodipodi:rx="21.033274"
       sodipodi:ry="1.3613973"
       sodipodi:start="0"
       sodipodi:end="5.2561227"
       sodipodi:open="true"
       sodipodi:arc-type="arc"
       d="m 202.59211,87.706543 a 21.033274,1.3613973 0 0 1 -15.6918,1.316766 21.033274,1.3613973 0 0 1 -23.66177,-0.647971 21.033274,1.3613973 0 0 1 3.67381,-1.645875 21.033274,1.3613973 0 0 1 25.52773,-0.187981"
       transform="matrix(0.91880436,0.39471324,-0.28182751,0.95946509,0,0)" />
  </g>
</svg>
